<?xml version="1.0" encoding="UTF-8" standalone="no"?>
<svg width="800" height="180" viewBox="0 0 800 180" xmlns="http://www.w3.org/2000/svg">
  <!-- Background -->
  <rect width="800" height="180" fill="#1e293b" rx="10" />
  
  <!-- HENRY Shield Icon -->
  <g transform="translate(40, 30)">
    <!-- Shield outline -->
    <path d="M60,10 L100,10 L100,80 L80,95 L60,110 L40,95 L20,80 L20,10 L60,10 Z" 
          fill="#334155" stroke="#3b82f6" stroke-width="3"/>
    
    <!-- H letter in shield -->
    <path d="M40,35 L40,85 M40,60 L80,60 M80,35 L80,85" 
          stroke="#3b82f6" stroke-width="8" stroke-linecap="round" fill="none"/>
    
    <!-- Data visualization lines in shield -->
    <line x1="30" y1="45" x2="50" y2="45" stroke="#06b6d4" stroke-width="2"/>
    <line x1="70" y1="45" x2="90" y2="45" stroke="#06b6d4" stroke-width="2"/>
    <line x1="30" y1="75" x2="50" y2="75" stroke="#06b6d4" stroke-width="2"/>
    <line x1="70" y1="75" x2="90" y2="75" stroke="#06b6d4" stroke-width="2"/>
    
    <!-- Small data visualization dots -->
    <circle cx="40" cy="30" r="3" fill="#f97316"/>
    <circle cx="55" cy="30" r="3" fill="#f97316"/>
    <circle cx="70" cy="30" r="3" fill="#f97316"/>
    <circle cx="85" cy="30" r="3" fill="#f97316"/>
    
    <circle cx="40" cy="90" r="3" fill="#10b981"/>
    <circle cx="55" cy="90" r="3" fill="#10b981"/>
    <circle cx="70" cy="90" r="3" fill="#10b981"/>
    <circle cx="85" cy="90" r="3" fill="#10b981"/>
  </g>
  
  <!-- HENRY Text -->
  <g transform="translate(160, 30)">
    <!-- Main Title -->
    <text font-family="Arial, sans-serif" font-size="60" font-weight="bold" fill="#ffffff">
      HENRY
    </text>
    
    <!-- Subtitle -->
    <text font-family="Arial, sans-serif" font-size="20" fill="#94a3b8" y="35">
      AI-Powered Veteran Crisis Prevention
    </text>
  </g>
  
  <!-- Key Metrics Row -->
  <g transform="translate(160, 90)">
    <!-- Veterans Monitored -->
    <rect x="0" y="0" width="120" height="50" rx="6" fill="#334155" stroke="#3b82f6" stroke-width="1"/>
    <text font-family="Arial, sans-serif" font-size="20" font-weight="bold" fill="#ffffff" x="15" y="25">500+</text>
    <text font-family="Arial, sans-serif" font-size="12" fill="#94a3b8" x="15" y="40">Veterans</text>
    
    <!-- F2 Score -->
    <rect x="135" y="0" width="120" height="50" rx="6" fill="#334155" stroke="#10b981" stroke-width="1"/>
    <text font-family="Arial, sans-serif" font-size="20" font-weight="bold" fill="#ffffff" x="150" y="25">94% F2</text>
    <text font-family="Arial, sans-serif" font-size="12" fill="#94a3b8" x="150" y="40">Accuracy</text>
    
    <!-- Early Detection -->
    <rect x="270" y="0" width="120" height="50" rx="6" fill="#334155" stroke="#f97316" stroke-width="1"/>
    <text font-family="Arial, sans-serif" font-size="20" font-weight="bold" fill="#ffffff" x="285" y="25">30-60d</text>
    <text font-family="Arial, sans-serif" font-size="12" fill="#94a3b8" x="285" y="40">Detection</text>
  </g>
  
  <!-- Tribute -->
  <text font-family="Arial, sans-serif" font-size="14" fill="#64748b" x="580" y="160">
    In memory of LCpl Christopher J. Henry
  </text>
  
  <!-- Data Visualization Elements in Background -->
  <g opacity="0.1">
    <!-- Horizontal grid line -->
    <line x1="40" y1="150" x2="760" y2="150" stroke="#94a3b8" stroke-width="1" stroke-dasharray="2,2"/>
    
    <!-- Vertical grid lines -->
    <line x1="140" y1="30" x2="140" y2="150" stroke="#94a3b8" stroke-width="1" stroke-dasharray="2,2"/>
    <line x1="400" y1="30" x2="400" y2="150" stroke="#94a3b8" stroke-width="1" stroke-dasharray="2,2"/>
    <line x1="600" y1="30" x2="600" y2="150" stroke="#94a3b8" stroke-width="1" stroke-dasharray="2,2"/>
    
    <!-- Data points -->
    <circle cx="200" cy="120" r="4" fill="#3b82f6"/>
    <circle cx="240" cy="100" r="4" fill="#3b82f6"/>
    <circle cx="280" cy="90" r="4" fill="#3b82f6"/>
    <circle cx="320" cy="70" r="4" fill="#3b82f6"/>
    <circle cx="360" cy="60" r="4" fill="#3b82f6"/>
    
    <!-- Data line -->
    <polyline points="200,120 240,100 280,90 320,70 360,60" stroke="#3b82f6" stroke-width="2" fill="none"/>
  </g>
</svg>
